# xmcd CD database file
#
# Track frame offsets:
#	150
#	3342
#	15300
#	29567
#	42300
#	58012
#	70002
#	83890
#	103200
#	115525
#	128220
#	132687
#	136200
#	150907
#	161932
#	171490
#	186232
#	200330
#	212380
#	225495
#
# Disc length: 3140 seconds
#
# Revision: 0
# Processed by: cddbd v1.4PL0 Copyright (c) Steve Scherf et al.
# Submitted via: CDex 1.50
#
DISCID=0e0c4214
DTITLE=Benny Goodman - The Complete 1937 Madhattan Room Broadcasts Vol. 3
DYEAR=1995
DGENRE=Jazz
TTITLE0=Let's Dance (theme)
TTITLE1=In The Shade Of The Old Apple Tree
TTITLE2=You're My Desire
TTITLE3=Am I Blue
TTITLE4=Where or When
TTITLE5=Someday Sweetheart
TTITLE6=Bob White
TTITLE7=Nagasaki
TTITLE8=Yours and Mine
TTITLE9=Jam Session
TTITLE10=Good-bye (theme)
TTITLE11=Let's Dance (theme) #2
TTITLE12=When Buddha Smiles
TTITLE13=Cherry
TTITLE14=Swing Low Sweet Chariot
TTITLE15=Star Dust
TTITLE16=The Lady Is A Tramp
TTITLE17=A Handful of Keys
TTITLE18=So Many Memories
TTITLE19=Swingtime in the Rockies
EXTD=YEAR: 1995
EXTT0=
EXTT1=
EXTT2=
EXTT3=
EXTT4=
EXTT5=
EXTT6=
EXTT7=
EXTT8=
EXTT9=
EXTT10=
EXTT11=
EXTT12=
EXTT13=
EXTT14=
EXTT15=
EXTT16=
EXTT17=
EXTT18=
EXTT19=
PLAYORDER=
